<svg width="186" height="132" viewBox="0 0 186 132" fill="none" xmlns="http://www.w3.org/2000/svg">
<path d="M98.9993 55.531L174.143 11.9373C144.548 -3.93214 107.716 -4.55351 76.5256 13.541C76.227 13.7142 75.9295 13.8887 75.6333 14.0646C75.4547 14.1706 75.2765 14.2772 75.0989 14.3842L75.1441 14.4629L0 58.0567C29.5951 73.9261 66.4277 74.5475 97.6178 56.453C98.0965 56.1753 98.5721 55.8942 99.0445 55.6098L98.9993 55.531Z" fill="url(#paint0_linear_185_351)"/>
<path d="M110.856 117.537L186 73.9433C156.405 58.0739 119.572 57.4526 88.3822 75.547C87.9035 75.8248 87.428 76.1058 86.9556 76.3902L87.0008 76.469L11.8567 120.063C41.4518 135.932 78.2844 136.553 109.474 118.459C109.953 118.181 110.429 117.9 110.901 117.616L110.856 117.537Z" fill="url(#paint1_linear_185_351)"/>
<defs>
<linearGradient id="paint0_linear_185_351" x1="-1.49807e-06" y1="109.466" x2="186.31" y2="24.4837" gradientUnits="userSpaceOnUse">
<stop stop-color="#0A4343"/>
<stop offset="1" stop-color="#6D9898"/>
</linearGradient>
<linearGradient id="paint1_linear_185_351" x1="-1.49807e-06" y1="109.466" x2="186.31" y2="24.4837" gradientUnits="userSpaceOnUse">
<stop stop-color="#0A4343"/>
<stop offset="1" stop-color="#6D9898"/>
</linearGradient>
</defs>
</svg>
